<?xml version="1.0" encoding="UTF-8" standalone="no"?>
<!-- Generator: Adobe Illustrator 16.0.0, SVG Export Plug-In . SVG Version: 6.00 Build 0)  -->

<svg
   version="1.1"
   x="0px"
   y="0px"
   width="480px"
   height="192px"
   viewBox="0 0 480 192"
   enable-background="new 0 0 480 192"
   xml:space="preserve"
   id="svg18"
   sodipodi:docname="icon1.svg"
   inkscape:version="1.3.2 (091e20e, 2023-11-25, custom)"
   xmlns:inkscape="http://www.inkscape.org/namespaces/inkscape"
   xmlns:sodipodi="http://sodipodi.sourceforge.net/DTD/sodipodi-0.dtd"
   xmlns="http://www.w3.org/2000/svg"
   xmlns:svg="http://www.w3.org/2000/svg"><defs
   id="defs18" /><sodipodi:namedview
   id="namedview18"
   pagecolor="#ffffff"
   bordercolor="#000000"
   borderopacity="0.25"
   inkscape:showpageshadow="2"
   inkscape:pageopacity="0.0"
   inkscape:pagecheckerboard="0"
   inkscape:deskcolor="#d1d1d1"
   inkscape:zoom="2.9166667"
   inkscape:cx="240"
   inkscape:cy="95.828571"
   inkscape:window-width="1920"
   inkscape:window-height="1009"
   inkscape:window-x="-8"
   inkscape:window-y="-8"
   inkscape:window-maximized="1"
   inkscape:current-layer="g18" />
<g
   id="Layer_1">
</g>
<g
   id="Layer_2">
	<path
   fill="#818181"
   d="M51.7,39.729v-4.134c0-0.622,0.029-1.1,0.085-1.442c0.059-0.338,0.188-0.674,0.394-1.005   c0.207-0.33,0.534-0.553,0.989-0.684c0.457-0.125,1.066-0.189,1.824-0.189h4.129V24h-6.61c-3.824,0-6.572,0.907-8.24,2.719   c-1.667,1.819-2.504,4.494-2.504,8.029v4.978h-4.951V48h4.95v24H51.7V48h6.609l0.875-8.271H51.7z"
   id="path1" />
	<path
   fill="#818181"
   d="M 148.5716,45.016961 166.44323,28.508 h -4.23351 L 146.68524,42.83957 134.2951,28.508 H 120.001 L 138.74141,50.181935 120.001,67.492 h 4.23351 L 140.61817,52.354133 153.7059,67.492 H 168 M 125.76248,31.045044 h 6.50386 l 29.94018,34.034557 h -6.50546 M 148.5716,45.016961 166.44323,28.508 h -4.23351 L 146.68524,42.83957 134.2951,28.508 H 120.001 L 138.74141,50.181935 120.001,67.492 h 4.23351 L 140.61817,52.354133 153.7059,67.492 H 168 M 125.76248,31.045044 h 6.50386 l 29.94018,34.034557 h -6.50546"
   id="path2" />
	<g
   id="g3">
		<path
   fill="#818181"
   d="M243.614,54.564c-0.515-0.668-1.073-1.314-1.688-1.911c-0.613-0.576-1.226-1.102-1.846-1.598    c-0.614-0.473-1.176-0.941-1.691-1.373c-0.501-0.454-0.919-0.92-1.241-1.397c-0.311-0.474-0.473-0.966-0.473-1.461    c0-0.697,0.227-1.35,0.66-1.957c0.443-0.596,0.98-1.184,1.615-1.76c0.634-0.564,1.267-1.179,1.901-1.856    c0.635-0.677,1.175-1.565,1.615-2.668c0.444-1.104,0.67-2.368,0.67-3.795c0-1.689-0.375-3.311-1.125-4.875    c-0.76-1.552-1.816-2.768-3.177-3.633h3.891l3.908-2.28h-12.607c-1.785,0-3.587,0.19-5.393,0.582    c-2.673,0.593-4.923,1.952-6.75,4.08c-1.827,2.128-2.739,4.53-2.739,7.223c0,2.853,1.025,5.219,3.072,7.1    c2.042,1.88,4.501,2.821,7.366,2.821c0.581,0,1.257-0.05,2.025-0.145c-0.042,0.157-0.11,0.366-0.203,0.625    c-0.096,0.258-0.172,0.468-0.234,0.616c-0.052,0.157-0.098,0.345-0.143,0.563c-0.041,0.227-0.064,0.448-0.064,0.68    c0,1.266,0.625,2.707,1.85,4.303c-1.458,0.042-2.906,0.156-4.32,0.384c-1.427,0.225-2.922,0.562-4.473,1.036    c-1.563,0.467-2.954,1.158-4.188,2.052c-1.225,0.896-2.146,1.964-2.77,3.188c-0.708,1.418-1.061,2.725-1.061,3.896    c0,1.297,0.285,2.445,0.867,3.508c0.572,1.042,1.314,1.891,2.223,2.568c0.897,0.66,1.945,1.223,3.125,1.658    c1.178,0.46,2.349,0.785,3.517,0.976c1.167,0.19,2.315,0.284,3.446,0.284c5.156,0,9.191-1.261,12.116-3.785    c2.695-2.344,4.037-5.037,4.037-8.122c0-1.111-0.152-2.119-0.476-3.083C244.545,56.064,244.126,55.255,243.614,54.564z     M232.498,44.083c-0.98,0-1.917-0.251-2.805-0.75c-0.876-0.506-1.636-1.151-2.249-1.948c-0.613-0.798-1.152-1.702-1.617-2.705    c-0.454-0.994-0.8-1.997-1.018-2.991c-0.226-1.003-0.331-1.959-0.331-2.856c0-1.849,0.483-3.438,1.465-4.76    c0.983-1.332,2.366-1.988,4.161-1.988c1.27,0,2.416,0.394,3.446,1.175c1.033,0.791,1.834,1.786,2.418,3.001    c0.588,1.215,1.037,2.463,1.359,3.767c0.311,1.294,0.471,2.52,0.471,3.682c0,1.921-0.419,3.468-1.25,4.625    C235.713,43.501,234.356,44.083,232.498,44.083z M240.471,65.732c-0.534,0.92-1.245,1.624-2.156,2.138    c-0.897,0.515-1.871,0.888-2.891,1.128c-1.031,0.239-2.121,0.344-3.25,0.344c-1.226,0-2.456-0.145-3.661-0.427    c-1.212-0.288-2.368-0.72-3.484-1.316c-1.104-0.575-1.996-1.399-2.68-2.43c-0.683-1.029-1.025-2.178-1.025-3.491    c0-1.158,0.258-2.188,0.786-3.089c0.518-0.896,1.177-1.632,1.992-2.157c0.803-0.548,1.743-0.982,2.821-1.344    c1.075-0.338,2.114-0.578,3.117-0.713c1.003-0.137,2.017-0.195,3.065-0.195c0.634,0,1.109,0.012,1.437,0.053    c0.116,0.061,0.405,0.277,0.884,0.609c0.469,0.322,0.783,0.551,0.943,0.656c0.165,0.103,0.465,0.334,0.894,0.656    c0.438,0.328,0.746,0.568,0.928,0.744c0.187,0.155,0.447,0.396,0.797,0.743c0.337,0.31,0.595,0.591,0.758,0.847    c0.164,0.236,0.369,0.527,0.607,0.864c0.239,0.356,0.404,0.688,0.509,1.008c0.094,0.308,0.188,0.661,0.267,1.036    c0.09,0.375,0.132,0.759,0.132,1.168C241.267,63.787,241.005,64.837,240.471,65.732z"
   id="path3" />
		<polygon
   fill="#818181"
   points="256.615,31.383 256.615,24 252.917,24 252.917,31.383 245.535,31.383 245.535,35.081     252.917,35.081 252.917,42.466 256.615,42.466 256.615,35.081 264,35.081 264,31.383   "
   id="polygon3" />
	</g>
	<g
   id="g6">
		<path
   fill="#818181"
   d="M416.731,57.531c-1.591,0-2.946,0.579-4.052,1.682c-1.128,1.125-1.677,2.466-1.677,4.054    c0,1.59,0.546,2.947,1.677,4.055c1.105,1.125,2.466,1.673,4.052,1.673c1.595,0,2.932-0.548,4.053-1.673    c1.107-1.107,1.662-2.467,1.662-4.055c0-1.591-0.555-2.932-1.662-4.054C419.663,58.109,418.327,57.531,416.731,57.531z"
   id="path4" />
		<path
   fill="#818181"
   d="M429.908,50.09c-2.241-2.275-4.825-4.076-7.737-5.417c-2.885-1.344-5.932-2.144-9.113-2.397h-0.146    c-0.507,0-0.95,0.166-1.278,0.502c-0.415,0.363-0.632,0.825-0.632,1.397v4.039c0,0.499,0.172,0.917,0.496,1.281    c0.322,0.358,0.734,0.551,1.231,0.595c4.555,0.425,8.438,2.277,11.672,5.504c3.226,3.234,5.061,7.118,5.507,11.674    c0.041,0.498,0.233,0.908,0.593,1.23c0.363,0.328,0.78,0.497,1.282,0.497h4.038c0.565,0,1.046-0.218,1.388-0.628    c0.396-0.408,0.545-0.871,0.526-1.427c-0.264-3.179-1.074-6.228-2.406-9.114C433.974,54.916,432.183,52.329,429.908,50.09z"
   id="path5" />
		<path
   fill="#818181"
   d="M449.416,52.045c-2.141-4.776-5.053-8.997-8.764-12.701c-3.717-3.715-7.926-6.639-12.698-8.759    c-4.75-2.131-9.752-3.323-14.954-3.588h-0.09c-0.509,0-0.955,0.184-1.316,0.541c-0.406,0.362-0.594,0.82-0.594,1.37v4.266    c0,0.496,0.175,0.932,0.51,1.296c0.354,0.367,0.772,0.566,1.272,0.588c4.28,0.253,8.338,1.275,12.196,3.048    c3.838,1.763,7.178,4.064,10.026,6.903c2.828,2.83,5.118,6.176,6.896,10.016c1.774,3.856,2.775,7.913,3.008,12.198    c0.033,0.498,0.218,0.914,0.586,1.271c0.362,0.331,0.813,0.507,1.324,0.507h4.275c0.545,0,1.005-0.186,1.363-0.589    c0.408-0.407,0.562-0.865,0.541-1.409C452.74,61.794,451.55,56.796,449.416,52.045z"
   id="path6" />
	</g>
	<g
   id="g9">
		<path
   fill="#818181"
   d="m 312,68.305 3.3901,-10.42831 c -2.09193,-3.052518 -3.19116,-6.512828 -3.18915,-10.061127 0.006,-11.093298 10.72696,-20.120563 23.89953,-20.120563 6.39236,0.0017 12.39286,2.098183 16.9063,5.901987 4.51143,3.803803 6.99523,8.859748 6.99322,14.237189 -0.006,11.09499 -10.72695,20.122255 -23.89952,20.122255 -3.999,-0.0017 -7.93972,-0.846042 -11.4303,-2.450137 z m 13.25697,-6.441761 c 3.368,1.683623 6.58327,2.692104 10.83547,2.693796 10.948,0 19.86636,-7.502697 19.87239,-16.726243 0.004,-9.24216 -8.87214,-16.734705 -19.85632,-16.738089 -10.95604,0 -19.86837,7.502698 -19.87239,16.724552 -0.002,3.764885 1.30822,6.583896 3.50867,9.533198 l -2.00754,6.17272 z m 22.88269,-9.245544 c -0.1487,-0.209818 -0.54659,-0.335032 -1.14544,-0.587152 -0.59683,-0.252121 -3.53278,-1.468729 -4.08138,-1.636245 -0.5466,-0.167516 -0.94449,-0.252121 -1.34439,0.25212 -0.39789,0.502549 -1.54333,1.636245 -1.89098,1.971277 -0.34765,0.335033 -0.69731,0.377335 -1.29415,0.125215 -0.59683,-0.252121 -2.52198,-0.781743 -4.80281,-2.495823 -1.77443,-1.333362 -2.97413,-2.979759 -3.32178,-3.484 -0.34765,-0.502549 -0.0362,-0.774974 0.26124,-1.025402 0.26928,-0.225048 0.59683,-0.587153 0.89626,-0.881576 0.30344,-0.291038 0.40191,-0.500857 0.60286,-0.837581 0.19895,-0.335033 0.10048,-0.629455 -0.0502,-0.881576 -0.15071,-0.250428 -1.34438,-2.725946 -1.84074,-3.732735 -0.48631,-0.979717 -0.97865,-0.847734 -1.34439,-0.862963 l -1.14544,-0.01692 c -0.39789,0 -1.04496,0.125214 -1.59156,0.629455 -0.54659,0.504241 -2.08993,1.719157 -2.08993,4.194675 0,2.475518 2.14017,4.866432 2.43758,5.201464 0.29943,0.335033 4.21,5.414667 10.20045,7.592378 1.42477,0.517777 2.53806,0.827429 3.40417,1.059244 1.4308,0.382411 2.73299,0.328264 3.76187,0.199666 1.14745,-0.143827 3.53278,-1.216608 4.03115,-2.390914 0.49837,-1.175998 0.49837,-2.182787 0.34765,-2.392606 z"
   id="path7"
   style="stroke-width:0.548012" />
		
		
	</g>
	<path
   fill="#FFFFFF"
   d="M51.7,135.729v-4.134c0-0.622,0.029-1.1,0.085-1.442c0.059-0.338,0.188-0.674,0.394-1.005   c0.207-0.33,0.534-0.553,0.989-0.685c0.457-0.125,1.066-0.189,1.824-0.189h4.129V120h-6.61c-3.824,0-6.572,0.907-8.24,2.719   c-1.667,1.819-2.504,4.494-2.504,8.029v4.979h-4.951V144h4.95v24H51.7v-24h6.609l0.875-8.271H51.7z"
   id="path10" />
	<path
   fill="#ffffff"
   d="M 148.5716,141.01738 166.44323,124.508 h -4.23351 L 146.68524,138.83994 134.2951,124.508 H 120.001 L 138.74141,146.18249 120.001,163.493 h 4.23351 L 140.61817,148.35474 153.7059,163.493 H 168 m -42.23752,-36.44789 h 6.50386 l 29.94018,34.03543 h -6.50546 M 148.5716,141.01738 166.44323,124.508 h -4.23351 L 146.68524,138.83994 134.2951,124.508 H 120.001 L 138.74141,146.18249 120.001,163.493 h 4.23351 L 140.61817,148.35474 153.7059,163.493 H 168 m -42.23752,-36.44789 h 6.50386 l 29.94018,34.03543 h -6.50546"
   id="path11"
   style="stroke-width:1.00001" />
	<g
   id="g12">
		<path
   fill="#FFFFFF"
   d="M243.614,150.564c-0.515-0.668-1.073-1.314-1.688-1.91c-0.613-0.576-1.226-1.102-1.846-1.598    c-0.614-0.474-1.176-0.941-1.691-1.373c-0.501-0.454-0.919-0.92-1.241-1.397c-0.311-0.474-0.473-0.966-0.473-1.461    c0-0.697,0.227-1.35,0.66-1.956c0.443-0.597,0.98-1.185,1.615-1.761c0.634-0.564,1.267-1.179,1.901-1.856    c0.635-0.676,1.175-1.564,1.615-2.668c0.444-1.104,0.67-2.368,0.67-3.795c0-1.689-0.375-3.312-1.125-4.875    c-0.76-1.553-1.816-2.768-3.177-3.634h3.891l3.908-2.28h-12.607c-1.785,0-3.587,0.19-5.393,0.582    c-2.673,0.593-4.923,1.951-6.75,4.08c-1.827,2.128-2.739,4.53-2.739,7.223c0,2.854,1.025,5.219,3.072,7.101    c2.042,1.88,4.501,2.821,7.366,2.821c0.581,0,1.257-0.051,2.025-0.145c-0.042,0.156-0.11,0.365-0.203,0.625    c-0.096,0.258-0.172,0.468-0.234,0.615c-0.052,0.157-0.098,0.345-0.143,0.562c-0.041,0.228-0.064,0.449-0.064,0.681    c0,1.266,0.625,2.706,1.85,4.304c-1.458,0.041-2.906,0.155-4.32,0.384c-1.427,0.226-2.922,0.562-4.473,1.036    c-1.563,0.467-2.954,1.158-4.188,2.052c-1.225,0.896-2.146,1.964-2.77,3.188c-0.708,1.418-1.061,2.725-1.061,3.896    c0,1.297,0.285,2.444,0.867,3.508c0.572,1.043,1.314,1.891,2.223,2.568c0.897,0.66,1.945,1.223,3.125,1.658    c1.178,0.46,2.349,0.785,3.517,0.976c1.167,0.19,2.315,0.284,3.446,0.284c5.156,0,9.191-1.262,12.116-3.785    c2.695-2.344,4.037-5.037,4.037-8.121c0-1.111-0.152-2.119-0.476-3.084C244.545,152.064,244.126,151.256,243.614,150.564z     M232.498,140.084c-0.98,0-1.917-0.252-2.805-0.75c-0.876-0.506-1.636-1.151-2.249-1.948c-0.613-0.798-1.152-1.702-1.617-2.705    c-0.454-0.993-0.8-1.997-1.018-2.991c-0.226-1.002-0.331-1.959-0.331-2.855c0-1.85,0.483-3.438,1.465-4.76    c0.983-1.332,2.366-1.988,4.161-1.988c1.27,0,2.416,0.394,3.446,1.175c1.033,0.791,1.834,1.786,2.418,3.001    c0.588,1.215,1.037,2.463,1.359,3.767c0.311,1.294,0.471,2.52,0.471,3.682c0,1.921-0.419,3.468-1.25,4.625    C235.713,139.501,234.356,140.084,232.498,140.084z M240.471,161.732c-0.534,0.92-1.245,1.624-2.156,2.138    c-0.897,0.515-1.871,0.888-2.891,1.128c-1.031,0.239-2.121,0.344-3.25,0.344c-1.226,0-2.456-0.145-3.661-0.426    c-1.212-0.288-2.368-0.721-3.484-1.316c-1.104-0.575-1.996-1.399-2.68-2.43c-0.683-1.029-1.025-2.178-1.025-3.491    c0-1.157,0.258-2.188,0.786-3.089c0.518-0.896,1.177-1.632,1.992-2.156c0.803-0.549,1.743-0.982,2.821-1.345    c1.075-0.339,2.114-0.577,3.117-0.714c1.003-0.137,2.017-0.195,3.065-0.195c0.634,0,1.109,0.013,1.437,0.054    c0.116,0.062,0.405,0.276,0.884,0.609c0.469,0.321,0.783,0.551,0.943,0.656c0.165,0.103,0.465,0.334,0.894,0.656    c0.438,0.328,0.746,0.568,0.928,0.743c0.187,0.155,0.447,0.396,0.797,0.743c0.337,0.31,0.595,0.591,0.758,0.847    c0.164,0.236,0.369,0.527,0.607,0.864c0.239,0.356,0.404,0.688,0.509,1.008c0.094,0.308,0.188,0.661,0.267,1.036    c0.09,0.375,0.132,0.76,0.132,1.168C241.267,159.787,241.005,160.837,240.471,161.732z"
   id="path12" />
		<polygon
   fill="#FFFFFF"
   points="256.615,127.383 256.615,120 252.917,120 252.917,127.383 245.535,127.383 245.535,131.081     252.917,131.081 252.917,138.467 256.615,138.467 256.615,131.081 264,131.081 264,127.383   "
   id="polygon12" />
	</g>
	<g
   id="g15">
		<path
   fill="#FFFFFF"
   d="M416.731,153.531c-1.591,0-2.946,0.578-4.052,1.682c-1.128,1.125-1.677,2.466-1.677,4.053    c0,1.59,0.546,2.947,1.677,4.055c1.105,1.125,2.466,1.674,4.052,1.674c1.595,0,2.932-0.549,4.053-1.674    c1.107-1.107,1.662-2.467,1.662-4.055c0-1.591-0.555-2.932-1.662-4.053C419.663,154.109,418.327,153.531,416.731,153.531z"
   id="path13" />
		<path
   fill="#FFFFFF"
   d="M429.908,146.09c-2.241-2.274-4.825-4.075-7.737-5.416c-2.885-1.344-5.932-2.145-9.113-2.397h-0.146    c-0.507,0-0.95,0.165-1.278,0.502c-0.415,0.362-0.632,0.825-0.632,1.397v4.039c0,0.498,0.172,0.917,0.496,1.281    c0.322,0.357,0.734,0.551,1.231,0.594c4.555,0.426,8.438,2.277,11.672,5.504c3.226,3.234,5.061,7.119,5.507,11.674    c0.041,0.498,0.233,0.908,0.593,1.23c0.363,0.328,0.78,0.497,1.282,0.497h4.038c0.565,0,1.046-0.218,1.388-0.628    c0.396-0.408,0.545-0.871,0.526-1.428c-0.264-3.178-1.074-6.228-2.406-9.113C433.974,150.916,432.183,148.328,429.908,146.09z"
   id="path14" />
		<path
   fill="#FFFFFF"
   d="M449.416,148.045c-2.141-4.775-5.053-8.996-8.764-12.7c-3.717-3.716-7.926-6.639-12.698-8.759    c-4.75-2.131-9.752-3.322-14.954-3.588h-0.09c-0.509,0-0.955,0.184-1.316,0.541c-0.406,0.361-0.594,0.819-0.594,1.369v4.266    c0,0.496,0.175,0.933,0.51,1.297c0.354,0.367,0.772,0.566,1.272,0.588c4.28,0.254,8.338,1.275,12.196,3.049    c3.838,1.763,7.178,4.064,10.026,6.902c2.828,2.83,5.118,6.177,6.896,10.017c1.774,3.856,2.775,7.913,3.008,12.198    c0.033,0.498,0.218,0.914,0.586,1.271c0.362,0.33,0.813,0.506,1.324,0.506h4.275c0.545,0,1.005-0.186,1.363-0.588    c0.408-0.408,0.562-0.865,0.541-1.409C452.74,157.794,451.55,152.796,449.416,148.045z"
   id="path15" />
	</g>
	<g
   id="g18">
		<path
   fill="#ffffff"
   d="m 312,164.305 3.3901,-10.42831 c -2.09193,-3.05252 -3.19116,-6.51283 -3.18915,-10.06113 0.006,-11.0933 10.72696,-20.12056 23.89953,-20.12056 6.39236,0.002 12.39286,2.09818 16.9063,5.90199 4.51143,3.8038 6.99523,8.85974 6.99322,14.23719 -0.006,11.09499 -10.72695,20.12225 -23.89952,20.12225 -3.999,-0.002 -7.93972,-0.84604 -11.4303,-2.45014 z m 13.25697,-6.44176 c 3.368,1.68362 6.58327,2.6921 10.83547,2.6938 10.948,0 19.86636,-7.5027 19.87239,-16.72625 0.004,-9.24216 -8.87214,-16.7347 -19.85632,-16.73809 -10.95604,0 -19.86837,7.5027 -19.87239,16.72456 -0.002,3.76488 1.30822,6.58389 3.50867,9.53319 l -2.00754,6.17272 z m 22.88269,-9.24555 c -0.1487,-0.20981 -0.54659,-0.33503 -1.14544,-0.58715 -0.59683,-0.25212 -3.53278,-1.46873 -4.08138,-1.63624 -0.5466,-0.16752 -0.94449,-0.25212 -1.34439,0.25212 -0.39789,0.50255 -1.54333,1.63624 -1.89098,1.97127 -0.34765,0.33504 -0.69731,0.37734 -1.29415,0.12522 -0.59683,-0.25212 -2.52198,-0.78174 -4.80281,-2.49582 -1.77443,-1.33337 -2.97413,-2.97976 -3.32178,-3.484 -0.34765,-0.50255 -0.0362,-0.77498 0.26124,-1.02541 0.26928,-0.22504 0.59683,-0.58715 0.89626,-0.88157 0.30344,-0.29104 0.40191,-0.50086 0.60286,-0.83758 0.19895,-0.33504 0.10048,-0.62946 -0.0502,-0.88158 -0.15071,-0.25043 -1.34438,-2.72594 -1.84074,-3.73273 -0.48631,-0.97972 -0.97865,-0.84774 -1.34439,-0.86297 l -1.14544,-0.0169 c -0.39789,0 -1.04496,0.12522 -1.59156,0.62946 -0.54659,0.50424 -2.08993,1.71916 -2.08993,4.19467 0,2.47552 2.14017,4.86644 2.43758,5.20147 0.29943,0.33503 4.21,5.41466 10.20045,7.59238 1.42477,0.51777 2.53806,0.82742 3.40417,1.05924 1.4308,0.38241 2.73299,0.32826 3.76187,0.19967 1.14745,-0.14383 3.53278,-1.21661 4.03115,-2.39092 0.49837,-1.176 0.49837,-2.18279 0.34765,-2.3926 z"
   id="path16" />
		
		
	</g>
</g>
</svg>
